<?xml version="1.0" standalone="no"?>
<!DOCTYPE svg PUBLIC "-//W3C//DTD SVG 20010904//EN"
 "http://www.w3.org/TR/2001/REC-SVG-20010904/DTD/svg10.dtd">
<svg version="1.0" xmlns="http://www.w3.org/2000/svg"
 width="16.000000pt" height="16.000000pt" viewBox="0 0 16.000000 16.000000"
 preserveAspectRatio="xMidYMid meet">
<metadata>
Created by potrace 1.11, written by Peter Selinger 2001-2013
</metadata>
<g transform="translate(0.000000,16.000000) scale(0.000861,-0.000861)"
fill="#000000" stroke="none">
<path d="M8850 16771 l0 -1810 440 0 440 1 0 1809 0 1809 -440 0 -440 0 0
-1809z"/>
<path d="M8630 17118 c-36 -11 -96 -29 -135 -41 -38 -11 -75 -22 -81 -23 -31
-5 -261 -102 -359 -151 -126 -63 -302 -167 -359 -212 -21 -17 -42 -31 -46 -31
-4 0 -16 -8 -27 -17 -11 -10 -35 -29 -53 -43 -92 -69 -138 -110 -254 -225
-101 -100 -178 -184 -213 -232 -10 -13 -26 -34 -37 -46 -31 -37 -140 -198
-188 -277 -71 -118 -133 -240 -178 -352 -22 -57 -45 -112 -50 -123 -16 -35
-91 -289 -96 -326 -4 -29 -2 -38 13 -44 10 -5 221 -10 468 -12 l450 -3 29 83
c37 105 78 192 135 287 40 67 115 177 130 190 3 3 24 28 45 55 68 86 296 305
317 305 5 0 9 4 9 8 0 10 195 139 270 179 58 31 204 93 230 98 8 2 16 4 18 5
3 3 19 7 32 9 12 1 14 948 3 954 -5 2 -37 -5 -73 -15z"/>
<path d="M9901 17099 c-11 -12 -23 -40 -26 -63 -3 -23 -5 -223 -3 -445 l3
-404 105 -43 c126 -52 172 -75 270 -134 64 -39 143 -93 160 -110 3 -3 23 -19
45 -35 42 -31 228 -214 280 -275 50 -58 165 -219 165 -230 0 -5 3 -10 8 -10 4
0 12 -10 18 -23 6 -12 27 -53 48 -92 20 -38 56 -115 80 -170 l43 -100 466 -2
c359 -2 467 1 467 10 0 51 -76 317 -114 402 -8 17 -28 64 -46 105 -18 41 -46
101 -61 132 -16 32 -28 60 -27 62 2 2 -4 12 -12 22 -9 11 -26 39 -40 64 -13
25 -40 70 -59 100 -20 30 -41 65 -47 77 -15 28 -174 238 -214 283 -110 122
-359 360 -379 360 -3 0 -20 12 -36 28 -98 88 -450 295 -605 356 -25 10 -58 24
-75 31 -16 7 -68 27 -115 43 -255 90 -269 93 -299 61z"/>
<path d="M6515 14810 c-15 -50 -18 -106 -20 -395 -1 -192 2 -350 9 -395 l11
-75 60 -1 c34 0 66 -3 72 -7 6 -4 14 -4 16 0 6 10 230 8 246 -1 6 -4 11 -4 11
1 0 10 92 9 108 -1 7 -4 12 -4 12 1 0 10 93 9 109 -1 6 -4 11 -3 11 1 0 10 53
9 69 -2 6 -3 11 -3 11 2 0 10 212 9 229 -1 6 -4 11 -4 11 1 0 4 38 8 85 8 47
0 85 -4 85 -8 0 -5 5 -5 11 -1 16 10 149 11 149 1 0 -4 8 -4 18 0 9 5 40 7 67
6 28 -1 76 -3 108 -2 95 0 255 0 280 -1 12 0 55 1 95 3 39 1 72 0 72 -3 0 -3
14 -5 30 -5 17 0 30 2 30 5 0 3 59 5 130 5 72 0 130 -4 130 -8 0 -5 5 -5 11
-1 15 9 272 9 287 0 7 -4 12 -3 12 1 0 10 53 9 69 -2 6 -3 11 -3 11 2 0 10
212 9 229 -1 6 -4 11 -3 11 1 0 10 53 9 69 -2 6 -3 11 -3 11 2 0 9 260 9 284
0 9 -4 16 -3 16 1 0 4 21 6 48 5 63 -2 127 -3 250 -3 56 0 112 0 125 0 12 0
55 1 95 3 39 1 72 0 72 -3 0 -3 14 -5 30 -5 17 0 30 2 30 5 0 3 59 5 130 5 72
0 130 -4 130 -8 0 -4 8 -4 18 0 9 5 40 7 67 6 28 -2 59 -3 70 -3 11 0 43 1 70
3 28 1 58 -1 68 -6 9 -4 17 -4 17 0 0 4 38 8 85 8 47 0 85 -4 85 -8 0 -4 8 -4
18 0 21 10 104 9 120 -1 7 -4 12 -3 12 1 0 10 53 9 69 -2 6 -3 11 -3 11 2 0 7
247 10 275 3 6 -1 13 -1 18 0 23 6 227 4 227 -3 0 -4 8 -4 18 1 9 5 40 7 69 5
29 -1 54 1 57 5 27 44 28 728 1 857 -4 20 -12 20 -539 20 -294 0 -532 -3 -530
-7 3 -4 -2 -5 -11 -2 -24 9 -474 11 -469 2 3 -4 -2 -5 -11 -2 -24 10 -395 10
-395 1 0 -5 -5 -5 -11 -1 -16 9 -453 9 -469 -1 -7 -5 -11 -4 -8 1 4 5 -93 9
-233 9 -131 0 -239 -4 -239 -8 0 -5 -5 -5 -11 -1 -6 3 -352 6 -768 5 -416 -1
-763 -1 -771 -1 -8 0 -51 1 -95 3 -44 1 -90 -1 -103 -5 -13 -4 -21 -5 -19 0 3
4 -120 7 -273 7 -153 0 -276 -3 -274 -7 3 -4 -2 -5 -11 -1 -9 3 -82 6 -161 7
-120 1 -145 -1 -149 -14z"/>
<path d="M6726 13803 c-1 -2 -25 -3 -52 -4 -59 -2 -114 -22 -115 -43 -1 -9 -2
-22 -3 -28 -1 -7 6 -38 16 -68 10 -30 20 -63 22 -75 2 -11 10 -33 17 -50 6
-16 13 -34 15 -40 19 -77 153 -383 184 -420 7 -8 9 -15 6 -15 -4 0 2 -13 13
-29 12 -16 21 -32 21 -36 0 -4 14 -27 30 -52 17 -24 30 -45 30 -47 0 -7 91
-139 137 -199 145 -190 313 -363 495 -508 107 -85 271 -199 287 -199 5 0 11
-3 13 -7 8 -19 272 -153 408 -207 186 -74 387 -136 414 -126 41 14 44 49 46
498 l1 429 -116 47 c-125 51 -252 118 -328 172 -26 19 -51 34 -55 34 -4 0 -14
9 -22 20 -8 11 -20 20 -26 20 -7 0 -14 3 -16 8 -1 4 -28 27 -58 51 -65 53
-239 227 -278 279 -15 21 -33 44 -41 52 -14 15 -91 127 -122 179 -43 72 -98
190 -140 299 l-24 62 -55 0 c-30 1 -201 2 -378 3 -178 1 -325 1 -326 0z"/>
<path d="M8850 11240 c-1 -3230 -3 -4060 -12 -4060 -4 0 -3 -13 2 -29 4 -16 6
-32 3 -34 -2 -3 -6 -85 -7 -183 -2 -99 -4 -187 -5 -196 -1 -17 -3 -17 -43 -1
-24 9 -62 27 -85 40 -24 13 -44 23 -45 22 -2 -1 -21 6 -43 16 -36 15 -114 41
-154 51 -69 16 -101 23 -136 28 -22 3 -49 7 -60 10 -11 2 -63 7 -115 11 -52 4
-103 9 -113 11 -9 1 -122 6 -249 9 -128 3 -234 7 -236 10 -2 2 -14 0 -27 -5
-13 -5 -26 -6 -29 -3 -3 3 -231 7 -506 7 l-500 1 0 -1701 0 -1700 440 0 440 0
0 1251 0 1251 203 -2 c225 -4 521 -12 582 -18 86 -7 204 -64 293 -142 70 -60
164 -218 202 -339 7 -22 17 -51 22 -65 4 -14 11 -36 13 -50 3 -14 7 -36 10
-50 10 -47 16 -195 19 -492 2 -163 7 -302 11 -309 6 -8 4 -10 -5 -4 -9 5 -11
4 -6 -3 4 -7 7 -56 6 -109 -1 -54 -1 -111 0 -128 1 -16 2 -73 1 -125 0 -52 0
-108 0 -125 0 -16 1 -500 1 -1075 1 -1077 -4 -1315 -26 -1404 -3 -13 -8 -41
-12 -62 -3 -21 -12 -57 -20 -80 -7 -22 -15 -49 -17 -60 -10 -48 -70 -176 -115
-244 -94 -139 -233 -224 -402 -245 -110 -14 -132 -16 -216 -20 -49 -2 -191 -7
-316 -10 l-228 -6 0 1259 c0 1192 -1 1260 -17 1264 -10 2 -207 3 -438 3 l-420
-1 -3 -1701 -2 -1702 562 5 c667 6 978 11 1108 19 93 6 165 12 165 15 0 2 8 3
55 13 66 14 203 61 322 111 72 30 135 53 140 50 4 -3 8 -51 8 -108 l0 -102
440 0 440 0 0 1510 0 1511 718 -2 c394 0 723 -1 730 -2 9 -1 12 -310 12 -1509
l0 -1508 450 0 450 0 0 3468 c0 2767 -3 3468 -12 3469 -69 5 -881 2 -884 -2
-2 -4 -4 -684 -4 -1511 l0 -1504 -730 0 -730 0 0 4938 c0 4696 -1 4938 -17
4938 -10 1 -208 2 -441 3 l-422 2 0 -2565z"/>
<path d="M11104 13802 c-16 -2 -24 -12 -28 -36 -10 -53 -160 -344 -228 -442
-203 -293 -446 -498 -788 -663 -57 -27 -123 -56 -147 -63 l-45 -13 4 -463 c3
-507 1 -487 63 -475 16 3 89 25 160 50 72 24 135 45 140 46 6 1 15 5 20 9 6 3
53 22 105 43 104 41 242 107 305 144 123 74 221 136 230 145 6 6 30 24 55 40
25 17 50 35 55 41 6 6 30 26 55 45 64 50 90 73 198 181 125 124 185 192 272
309 14 18 30 38 35 45 6 6 15 18 20 27 6 8 28 42 49 74 94 142 239 417 250
478 2 6 10 29 20 51 45 105 122 358 121 404 l0 23 -450 2 c-247 0 -460 0 -471
-2z"/>
</g>
</svg>
