<svg xmlns:rdf="http://www.w3.org/1999/02/22-rdf-syntax-ns#" xmlns="http://www.w3.org/2000/svg" height="262.22mm" width="79.022mm" version="1.1" xmlns:cc="http://creativecommons.org/ns#" xmlns:dc="http://purl.org/dc/elements/1.1/" viewBox="0 0 279.99999 929.13392">
 <g transform="translate(-559.05 -453.08)">
  <path fill="#FFF" d="m559.05 1297.1v-85.066h22 22v63.131 63.131l18.75-0.5265c20.586-0.5781 26.124-1.6885 32.899-6.5965 8.0376-5.8224 13.503-17.998 15.395-34.298 0.7278-6.2697 0.9619-37.457 0.7118-94.841-0.3334-76.511-0.551-86.165-2.0699-91.824-3.7789-14.08-9.5602-22.494-18.456-26.863-5.6307-2.765-6.0876-2.8196-26.48-3.1646l-20.75-0.351v62.601 62.601h-22-22v-85-85l36.75 0.01c47.058 0.011 60.565 1.5571 74.276 8.505 2.6991 1.3677 5.3724 2.4868 5.9407 2.4868 0.7071 0.0002 1.0332-55.87 1.0332-177v-177h22 22v247 247h36.5 36.5v-75.5-75.5h22.5 22.5v173.5 173.5h-22.5-22.5v-75.5-75.5h-36.5-36.5v75.5 75.5h-22-22v-5.5c0-3.025-0.1627-5.5-0.3616-5.5-0.199 0-3.3598 1.3594-7.0242 3.0209-3.6643 1.6615-10.364 3.9914-14.888 5.1777-7.6882 2.0158-11.085 2.1821-51.976 2.545l-43.75 0.3883v-85.066zm100-499.47c-44.343-13.406-79.221-47.438-93.599-91.328-5.1838-15.825-7.3588-14.269 19.941-14.269h23.342l2.8095 7.161c8.3593 21.307 29.896 42.682 51.756 51.369l6.75 2.6824v23.394c0 26.879 1.1595 24.666-11 20.99zm69-21.19v-23.594l2.25-0.57456c1.2375-0.31601 6.525-2.7552 11.75-5.4204 17.551-8.9526 31.865-23.267 40.818-40.818 2.6652-5.225 5.1044-10.512 5.4204-11.75l0.5746-2.25h23.673 23.673l-0.6892 3.25c-1.7427 8.2176-6.8844 22.244-11.419 31.15-13.599 26.71-36.034 48.963-62.507 62.002-10.075 4.9622-28.415 11.597-32.056 11.597-1.2754 0-1.4881-3.3724-1.4881-23.594zm-168.36-95.156c-0.3409-2.0625-0.6199-10.275-0.6199-18.25s0.279-16.188 0.6199-18.25l0.6198-3.75h138.73 138.73l0.6306 5.25c0.813 6.7687 0.813 26.731 0 33.5l-0.6306 5.25h-138.73-138.73l-0.6198-3.75zm2.3581-49.268c0-1.1102 1.5755-6.8477 3.5012-12.75 14.602-44.758 51.335-79.554 97.249-92.12l7.25-1.9842v23.859 23.859l-3.75 1.2157c-23.628 7.6599-48.53 32.561-56.189 56.189l-1.2157 3.75h-23.422c-22.827 0-23.422-0.0513-23.422-2.0185zm115-88.482v-90.5h22 22v90.5 90.5h-22-22v-90.5zm109.96 84.75c-8.9039-22.55-30.269-44.309-51.801-52.756l-7.1611-2.8095v-23.342c0-27.399-1.5769-25.291 14.814-19.806 29.637 9.9172 55.536 29.629 72.594 55.252 9.4748 14.232 17.788 33.077 20.153 45.686l0.6615 3.5263h-23.495-23.495l-2.2704-5.75z"/>
 </g>
</svg>
